<svg width="18" height="10" viewBox="0 0 18 10" fill="none" xmlns="http://www.w3.org/2000/svg">
<path fill-rule="evenodd" clip-rule="evenodd" d="M17.5796 0.258866C17.8968 0.394839 18.0438 0.762263 17.9078 1.07953L17.3334 0.833332C17.9078 1.07953 17.9079 1.07938 17.9078 1.07953L17.9072 1.08093L17.9063 1.083L17.9037 1.08913L17.8948 1.1092C17.8873 1.12598 17.8766 1.14949 17.8628 1.17923C17.835 1.23869 17.7945 1.32312 17.7407 1.42846C17.6334 1.639 17.473 1.9339 17.2571 2.28039C16.9024 2.84959 16.3937 3.56471 15.7184 4.27515L16.5253 5.08209C16.7694 5.32617 16.7694 5.72189 16.5253 5.96597C16.2812 6.21005 15.8855 6.21005 15.6414 5.96597L14.8076 5.13215C14.2579 5.59273 13.6274 6.02502 12.9126 6.38019L13.6906 7.5758C13.8788 7.86512 13.7969 8.25227 13.5076 8.44053C13.2182 8.62879 12.8311 8.54685 12.6428 8.25753L11.7352 6.86262C11.0857 7.07471 10.3826 7.21884 9.62502 7.27051V8.75C9.62502 9.09518 9.3452 9.375 9.00002 9.375C8.65484 9.375 8.37502 9.09518 8.37502 8.75V7.27051C7.64083 7.22044 6.95766 7.08351 6.32494 6.882L5.42987 8.25759C5.24162 8.54691 4.85447 8.62884 4.56514 8.44059C4.27582 8.25233 4.19389 7.86518 4.38214 7.57586L5.14249 6.40731C4.42217 6.05554 3.78659 5.62514 3.2321 5.16521L2.43128 5.96603C2.18721 6.21011 1.79148 6.21011 1.5474 5.96603C1.30332 5.72195 1.30332 5.32622 1.5474 5.08214L2.3172 4.31234C1.63007 3.59593 1.11279 2.87213 0.752389 2.29555C0.533284 1.94503 0.370577 1.64637 0.26165 1.43307C0.207149 1.32635 0.166001 1.24079 0.13789 1.18053C0.123831 1.15039 0.113023 1.12657 0.105427 1.10957L0.0964324 1.08924L0.09373 1.08304L0.0928258 1.08094L0.0924852 1.08015C0.0924217 1.08 0.0922189 1.07953 0.666685 0.833332L0.0924852 1.08015C-0.043487 0.762884 0.103216 0.394839 0.420485 0.258866C0.737493 0.123006 1.10457 0.269622 1.24081 0.58635C1.24077 0.58624 1.24086 0.586459 1.24081 0.58635L1.24161 0.588175L1.24667 0.599603C1.25158 0.610599 1.25958 0.628255 1.27069 0.652065C1.29291 0.699698 1.32755 0.771873 1.37488 0.86456C1.46963 1.05008 1.61476 1.31689 1.81235 1.633C2.20869 2.26706 2.80972 3.08924 3.62975 3.85133C4.35134 4.52192 5.23557 5.13963 6.29312 5.5465C7.08853 5.85252 7.98789 6.04166 9.00002 6.04166C10.0348 6.04166 10.9518 5.84397 11.7604 5.52568C12.8116 5.11194 13.6898 4.49021 14.4056 3.81832C15.2136 3.05997 15.8058 2.24596 16.1962 1.61934C16.3909 1.30692 16.5339 1.04355 16.6272 0.860556C16.6738 0.769127 16.7079 0.697972 16.7298 0.651037C16.7408 0.627575 16.7486 0.610187 16.7535 0.599366L16.7584 0.58813L16.7589 0.587133C16.7589 0.587214 16.7589 0.587051 16.7589 0.587133M17.5796 0.258866C17.2624 0.122929 16.8949 0.270033 16.7589 0.587133L17.5796 0.258866ZM1.24081 0.58635C1.24077 0.58624 1.24086 0.586459 1.24081 0.58635V0.58635Z" fill="#B1B5C3"/>
</svg>
