<svg width="12" height="16" viewBox="0 0 12 16" fill="none" xmlns="http://www.w3.org/2000/svg">
<path fill-rule="evenodd" clip-rule="evenodd" d="M0.166687 6.76219C0.166687 3.49618 2.77003 0.833328 6.00002 0.833328C9.23001 0.833328 11.8334 3.49618 11.8334 6.76219C11.8334 8.33892 11.384 10.0319 10.5897 11.4946C9.79628 12.9554 8.63711 14.2248 7.18703 14.9026C6.43373 15.2547 5.56631 15.2547 4.81301 14.9026C3.36293 14.2248 2.20377 12.9554 1.41039 11.4946C0.616039 10.0319 0.166687 8.33892 0.166687 6.76219ZM6.00002 1.83333C3.33898 1.83333 1.16669 4.03165 1.16669 6.76219C1.16669 8.16024 1.56844 9.69027 2.28916 11.0173C3.01085 12.3462 4.0307 13.4331 5.23645 13.9967C5.72139 14.2233 6.27865 14.2233 6.76359 13.9967C7.96934 13.4331 8.98919 12.3462 9.71088 11.0173C10.4316 9.69027 10.8334 8.16024 10.8334 6.76219C10.8334 4.03165 8.66107 1.83333 6.00002 1.83333ZM6.00002 5.16666C5.17159 5.16666 4.50002 5.83823 4.50002 6.66666C4.50002 7.49509 5.17159 8.16666 6.00002 8.16666C6.82845 8.16666 7.50002 7.49509 7.50002 6.66666C7.50002 5.83823 6.82845 5.16666 6.00002 5.16666ZM3.50002 6.66666C3.50002 5.28595 4.61931 4.16666 6.00002 4.16666C7.38073 4.16666 8.50002 5.28595 8.50002 6.66666C8.50002 8.04737 7.38073 9.16666 6.00002 9.16666C4.61931 9.16666 3.50002 8.04737 3.50002 6.66666Z" fill="#151515"/>
</svg>
