<svg width="16" height="16" viewBox="0 0 16 16" fill="none" xmlns="http://www.w3.org/2000/svg">
<path fill-rule="evenodd" clip-rule="evenodd" d="M9.39933 1.59406C10.4136 0.579752 12.0582 0.579752 13.0725 1.59406C14.0868 2.60836 14.0868 4.25287 13.0725 5.26718L8.00978 10.3299C7.72445 10.6152 7.5502 10.7895 7.35598 10.941C7.12716 11.1194 6.87958 11.2725 6.61761 11.3973C6.39527 11.5033 6.16147 11.5812 5.77862 11.7088L3.99686 12.3027L3.56908 12.4453C3.18618 12.5729 2.76403 12.4733 2.47863 12.1879C2.19324 11.9025 2.09358 11.4803 2.22121 11.0974L2.95773 8.88789C3.08532 8.50505 3.16324 8.27124 3.2692 8.0489C3.39405 7.78693 3.54707 7.53935 3.72554 7.31053C3.87702 7.11631 4.0513 6.94206 4.33667 6.65672L9.39933 1.59406ZM3.97379 11.2563L3.41021 10.6927L3.89582 9.23588C4.03721 8.81171 4.09561 8.63925 4.17193 8.47912C4.26553 8.28272 4.38025 8.0971 4.51405 7.92555C4.62315 7.78567 4.75129 7.65631 5.06744 7.34016L8.99476 3.41284C9.15687 3.8195 9.43115 4.31032 9.89367 4.77284C10.3562 5.23536 10.847 5.50964 11.2537 5.67175L7.32635 9.59907C7.0102 9.91522 6.88084 10.0434 6.74096 10.1525C6.56941 10.2863 6.38379 10.401 6.1874 10.4946C6.02726 10.5709 5.8548 10.6293 5.43063 10.7707L3.97379 11.2563ZM12.0505 4.87493C11.9679 4.85681 11.8647 4.82954 11.7474 4.78883C11.4247 4.67687 11.0002 4.46518 10.6008 4.06573C10.2013 3.66629 9.98964 3.24183 9.87769 2.91915C9.83697 2.8018 9.8097 2.69858 9.79158 2.61602L10.1064 2.30116C10.7302 1.67738 11.7416 1.67738 12.3653 2.30116C12.9891 2.92494 12.9891 3.93629 12.3653 4.56007L12.0505 4.87493ZM2.16652 14.6667C2.16652 14.3905 2.39038 14.1667 2.66652 14.1667H13.3332V15.1667H2.66652C2.39038 15.1667 2.16652 14.9428 2.16652 14.6667Z" fill="#3626A7"/>
</svg>
