<svg width="16" height="15" viewBox="0 0 16 15" fill="none" xmlns="http://www.w3.org/2000/svg">
<path fill-rule="evenodd" clip-rule="evenodd" d="M7.04061 0.500001H8.95965C9.03532 0.49999 9.09422 0.499981 9.14995 0.503356C9.85691 0.546171 10.476 0.992366 10.7401 1.6495C10.761 1.7013 10.7796 1.75718 10.8035 1.82898L10.8249 1.8932C10.8375 1.931 10.8411 1.9417 10.8442 1.95012C10.9623 2.27666 11.2532 2.50385 11.5568 2.53341C11.5791 2.53462 11.6013 2.53587 11.6233 2.53717C12.741 2.60311 13.6008 2.78918 14.2392 3.4275C14.7381 3.92641 14.9595 4.55904 15.0646 5.34065C15.1667 6.10013 15.1667 7.07055 15.1666 8.29573V8.37094C15.1667 9.59612 15.1667 10.5665 15.0646 11.326C14.9595 12.1076 14.7381 12.7403 14.2392 13.2392C13.7402 13.7381 13.1076 13.9595 12.326 14.0646C11.5665 14.1667 10.5961 14.1667 9.37092 14.1667H6.62904C5.40386 14.1667 4.43344 14.1667 3.67396 14.0646C2.89235 13.9595 2.25972 13.7381 1.76081 13.2392C1.2619 12.7403 1.04049 12.1076 0.935403 11.326C0.833294 10.5665 0.833303 9.59612 0.833313 8.37095V8.29573C0.833303 7.07055 0.833294 6.10013 0.935403 5.34065C1.04049 4.55904 1.2619 3.92641 1.76081 3.4275C2.39913 2.78918 3.25901 2.60311 4.37663 2.53717C4.39865 2.53587 4.42083 2.53462 4.44315 2.53341C4.74686 2.50384 5.03802 2.27655 5.15609 1.95014C5.15916 1.94165 5.16269 1.93118 5.17535 1.89321L5.19677 1.82896C5.22068 1.75718 5.2393 1.70129 5.26012 1.6495C5.5243 0.992366 6.14336 0.546171 6.85031 0.503356C6.90604 0.499981 6.96494 0.49999 7.04061 0.500001ZM4.42794 3.53588C4.45755 3.53498 4.48698 3.53332 4.51621 3.53092C5.09781 3.50018 5.7981 3.5 6.66665 3.5H9.33331C10.2019 3.5 10.9021 3.50018 11.4837 3.53092C11.513 3.53332 11.5424 3.53498 11.572 3.53588C12.6413 3.59964 13.1707 3.7733 13.532 4.1346C13.6603 4.26287 13.7652 4.4127 13.85 4.60099C12.6319 5.39177 11.8316 5.9019 11.1577 6.23857C11.1134 6.00774 10.9104 5.83334 10.6666 5.83334C10.3905 5.83334 10.1666 6.05719 10.1666 6.33334V6.63864C8.75368 7.065 7.24627 7.06499 5.83331 6.63861V6.33334C5.83331 6.05719 5.60946 5.83334 5.33331 5.83334C5.08959 5.83334 4.8866 6.00772 4.84229 6.23852C4.16839 5.90184 3.36805 5.3917 2.15001 4.60094C2.23476 4.41267 2.33966 4.26286 2.46792 4.1346C2.82922 3.7733 3.3587 3.59964 4.42794 3.53588ZM1.90687 5.63535C1.83422 6.29962 1.83331 7.15956 1.83331 8.33334C1.83331 9.60455 1.83438 10.5077 1.92649 11.1928C2.01666 11.8635 2.18578 12.2499 2.46792 12.5321C2.75006 12.8142 3.13649 12.9833 3.80721 13.0735C4.49232 13.1656 5.39543 13.1667 6.66665 13.1667H9.33331C10.6045 13.1667 11.5076 13.1656 12.1927 13.0735C12.8635 12.9833 13.2499 12.8142 13.532 12.5321C13.8142 12.2499 13.9833 11.8635 14.0735 11.1928C14.1656 10.5077 14.1666 9.60455 14.1666 8.33334C14.1666 7.1596 14.1657 6.29967 14.0931 5.63541C12.8351 6.45059 11.9723 6.99005 11.1666 7.33638V7.66667C11.1666 7.94281 10.9428 8.16667 10.6666 8.16667C10.3942 8.16667 10.1726 7.9487 10.1668 7.67761C8.74658 8.05201 7.25338 8.052 5.83319 7.67758C5.82739 7.94868 5.60581 8.16667 5.33331 8.16667C5.05717 8.16667 4.83331 7.94281 4.83331 7.66667V7.33634C4.02764 6.98999 3.16488 6.45053 1.90687 5.63535ZM9.99466 2.50059C9.78742 2.5 9.57162 2.5 9.34702 2.5H6.65294C6.42844 2.5 6.21274 2.5 6.0056 2.50059C6.04006 2.43242 6.07046 2.36218 6.09646 2.2903C6.10441 2.26832 6.11221 2.24493 6.12222 2.21487L6.12403 2.20943L6.14114 2.15812C6.17136 2.06744 6.17991 2.04249 6.18795 2.0225C6.30803 1.7238 6.58942 1.52099 6.91077 1.50153C6.93227 1.50022 6.95864 1.5 7.05422 1.5H8.94604C9.04163 1.5 9.06799 1.50022 9.0895 1.50153C9.41084 1.52099 9.69223 1.7238 9.81231 2.0225C9.82035 2.0425 9.8289 2.06743 9.85912 2.15812L9.878 2.21475M9.90381 2.29031C9.92981 2.36219 9.9602 2.43242 9.99466 2.50059Z" fill="#151515"/>
</svg>
