<svg width="12" height="14" viewBox="0 0 12 14" fill="none" xmlns="http://www.w3.org/2000/svg">
<path d="M1.77952 5.60957L3.82095 2.84755C5.14052 1.06218 5.80031 0.169494 6.41588 0.358137C7.03146 0.54678 7.03146 1.64166 7.03146 3.83141V4.03787C7.03146 4.82767 7.03146 5.22257 7.28382 5.47027L7.29717 5.4831C7.55497 5.72557 7.96598 5.72557 8.78799 5.72557C10.2672 5.72557 11.0069 5.72557 11.2568 6.1742C11.261 6.18163 11.265 6.18912 11.2689 6.19666C11.5049 6.65223 11.0766 7.23164 10.2201 8.39045L8.17871 11.1524C6.8591 12.9378 6.1993 13.8305 5.58373 13.6419C4.96816 13.4532 4.96817 12.3583 4.9682 10.1685L4.96821 9.96216C4.96822 9.17236 4.96822 8.77745 4.71586 8.52974L4.70251 8.51692C4.44471 8.27444 4.03369 8.27444 3.21167 8.27444C1.73243 8.27444 0.992802 8.27444 0.742835 7.82581C0.738696 7.81839 0.734673 7.8109 0.730766 7.80336C0.494798 7.34778 0.923039 6.76838 1.77952 5.60957Z" fill="white"/>
</svg>
