<svg width="14" height="14" viewBox="0 0 14 14" fill="none" xmlns="http://www.w3.org/2000/svg">
<path fill-rule="evenodd" clip-rule="evenodd" d="M2.38579 2.37941C4.91601 -0.147249 9.0291 -0.120384 11.5748 2.42531C14.1216 4.97211 14.1474 9.08765 11.6174 11.6176C9.08749 14.1475 4.97195 14.1217 2.42516 11.575C0.915925 10.0657 0.292692 8.00674 0.560314 6.05428C0.597814 5.7807 0.849997 5.58931 1.12358 5.62681C1.39717 5.66431 1.58855 5.9165 1.55105 6.19008C1.3244 7.84362 1.85188 9.58746 3.13226 10.8678C5.29525 13.0308 8.77759 13.0432 10.9103 10.9105C13.0431 8.77775 13.0307 5.29541 10.8677 3.13242C8.70581 0.97054 5.22592 0.957056 3.0929 3.08651L3.59137 3.08902C3.86751 3.0904 4.09023 3.31538 4.08885 3.59152C4.08746 3.86766 3.86248 4.09039 3.58634 4.089L1.88931 4.08047C1.61513 4.0791 1.3932 3.85717 1.39183 3.58299L1.3833 1.88596C1.38191 1.60982 1.60464 1.38484 1.88078 1.38345C2.15692 1.38206 2.3819 1.60479 2.38328 1.88093L2.38579 2.37941ZM6.99992 3.83341C7.27606 3.83341 7.49992 4.05727 7.49992 4.33341V6.79297L9.02014 8.31319C9.2154 8.50845 9.2154 8.82503 9.02014 9.0203C8.82488 9.21556 8.5083 9.21556 8.31303 9.0203L6.49992 7.20718V4.33341C6.49992 4.05727 6.72378 3.83341 6.99992 3.83341Z" fill="#151515"/>
</svg>
